<svg xmlns="http://www.w3.org/2000/svg" fill="#ffffff" viewBox="0 0 24 24" stroke-width="1.5" stroke="currentColor" class="w-6 h-6">
<path d="M1389 636 c-2 -2 -170 -6 -374 -10 -418 -7 -689 -14 -882 -22 l-133
-6 0 -52 0 -52 268 -66 c288 -72 448 -115 472 -125 8 -4 -23 -10 -70 -13 -78
-5 -95 -2 -210 33 -170 52 -333 97 -402 112 l-58 13 0 -224 0 -224 1433 0
1434 0 21 23 c12 13 22 31 22 40 0 16 12 22 33 18 5 -1 6 3 2 9 -4 6 -2 17 4
24 19 23 -9 60 -32 44 -2 -2 -11 3 -20 10 -13 11 -17 10 -25 -4 -11 -19 -36
-9 -28 12 3 7 1 16 -4 19 -6 4 -10 -1 -10 -9 0 -9 -4 -16 -10 -16 -5 0 -10 5
-10 10 0 6 -4 10 -10 10 -5 0 -7 -6 -4 -14 8 -20 -17 -32 -30 -14 -15 19 -44
29 -51 18 -8 -13 -25 -13 -25 1 0 5 5 7 12 3 6 -4 8 -3 4 4 -3 6 -20 9 -36 7
-18 -3 -28 0 -25 5 10 16 -15 11 -32 -5 -14 -14 -17 -14 -32 3 -22 25 -46 33
-60 19 -8 -8 -11 -7 -11 4 -1 11 -3 10 -14 -3 -12 -16 -15 -16 -50 2 -27 13
-52 18 -87 15 -29 -3 -53 1 -61 8 -7 7 -28 13 -47 14 -18 0 -38 6 -44 12 -7 7
-4 9 12 6 14 -3 21 0 18 8 -5 17 -48 17 -54 1 -3 -8 -9 -11 -14 -8 -5 3 -7 10
-4 15 4 5 -8 9 -24 9 -17 0 -31 -4 -31 -10 0 -5 5 -10 10 -10 6 0 10 -4 10 -8
0 -4 -17 -7 -37 -5 -21 1 -81 5 -133 7 -52 3 -97 6 -100 7 -3 1 -8 1 -12 0 -4
0 -5 5 -2 12 5 13 50 16 69 5 6 -3 19 -2 29 2 19 6 19 7 0 14 -34 13 -114 23
-114 14 0 -5 -9 -4 -19 2 -14 7 -22 7 -26 0 -5 -8 -12 -7 -22 2 -9 7 -19 12
-22 12 -3 -1 -17 3 -30 8 -13 5 -58 11 -100 13 -74 5 -104 16 -81 30 6 4 16 3
23 -2 7 -5 19 -9 27 -8 8 1 25 3 38 3 15 1 21 6 16 14 -4 7 -3 8 5 4 6 -4 9
-12 6 -17 -4 -5 4 -9 17 -9 19 0 24 6 26 29 2 21 -3 30 -17 34 -14 3 -18 0
-15 -17 3 -17 2 -16 -8 5 -7 14 -19 24 -26 22 -6 -3 -10 -8 -8 -12 3 -4 -4 -7
-14 -8 -11 -1 -22 3 -26 8 -3 5 0 8 7 7 6 -2 12 6 13 17 2 20 -7 24 -61 28 -7
0 -13 3 -13 7 0 4 -16 11 -35 17 -29 9 -35 9 -35 -4 0 -12 -2 -12 -16 1 -8 9
-22 16 -30 16 -8 0 -12 4 -9 10 4 6 -2 7 -18 1 -18 -7 -26 -5 -35 9 -14 23 -3
28 61 24 35 -3 46 0 42 9 -4 6 -1 5 7 -3 10 -11 32 -15 88 -13 89 2 155 9 169
18 6 3 11 1 11 -4 0 -6 11 -11 25 -11 14 0 25 -6 25 -12 1 -8 6 -6 14 4 7 10
16 15 19 11 4 -3 7 2 7 11 0 12 -5 16 -15 12 -8 -3 -15 -1 -15 3 0 5 -10 7
-22 4 -19 -4 -20 -3 -8 6 11 8 -17 10 -105 7 -99 -4 -123 -2 -137 11 -16 15
-20 14 -39 -3 -14 -13 -19 -14 -17 -4 2 9 -7 15 -28 17 -17 1 -33 1 -35 -1z"/>
<path d="M3127 142 c-3 -4 -10 -24 -16 -44 -7 -21 -17 -38 -22 -38 -5 0 -9
-13 -9 -30 l0 -30 212 0 c209 0 211 0 193 20 -10 11 -15 26 -11 36 9 24 -30
73 -53 67 -10 -3 -29 1 -41 7 -14 7 -25 8 -29 3 -7 -12 -71 -13 -71 -2 0 4
-24 7 -52 5 -29 -1 -63 1 -75 5 -12 5 -24 5 -26 1z"/>

</svg>
